<mxfile host="app.diagrams.net" modified="2024-06-03T11:54:41.021Z" agent="Mozilla/5.0 (Windows NT 10.0; Win64; x64) AppleWebKit/537.36 (KHTML, like Gecko) Chrome/121.0.0.0 Safari/537.36" etag="I2vkqpwbpYmfdAW-9x_F" version="24.4.13" type="device">
  <diagram id="V2Eki8lrsAq_mwwm4eWt" name="Página-1">
    <mxGraphModel dx="1434" dy="772" grid="1" gridSize="10" guides="1" tooltips="1" connect="1" arrows="1" fold="1" page="1" pageScale="1" pageWidth="827" pageHeight="1169" math="0" shadow="0">
      <root>
        <mxCell id="0" />
        <mxCell id="1" parent="0" />
        <mxCell id="AgfTuFufSc-NYEQd6qqG-1" value="" style="rounded=0;whiteSpace=wrap;html=1;direction=south;fillColor=#bac8d3;strokeColor=#23445d;" parent="1" vertex="1">
          <mxGeometry x="180" width="660" height="600" as="geometry" />
        </mxCell>
        <mxCell id="AgfTuFufSc-NYEQd6qqG-2" value="" style="shape=ext;double=1;whiteSpace=wrap;html=1;aspect=fixed;fillColor=#647687;strokeColor=#314354;fontColor=#ffffff;" parent="1" vertex="1">
          <mxGeometry x="260" y="430" width="80" height="80" as="geometry" />
        </mxCell>
        <mxCell id="AgfTuFufSc-NYEQd6qqG-3" value="" style="shape=ext;double=1;whiteSpace=wrap;html=1;aspect=fixed;fillColor=#647687;strokeColor=#314354;fontColor=#ffffff;" parent="1" vertex="1">
          <mxGeometry x="470" y="430" width="80" height="80" as="geometry" />
        </mxCell>
        <mxCell id="AgfTuFufSc-NYEQd6qqG-4" value="" style="shape=ext;double=1;whiteSpace=wrap;html=1;aspect=fixed;fillColor=#647687;strokeColor=#314354;fontColor=#ffffff;" parent="1" vertex="1">
          <mxGeometry x="670" y="430" width="80" height="80" as="geometry" />
        </mxCell>
        <mxCell id="AgfTuFufSc-NYEQd6qqG-6" value="" style="shape=image;html=1;verticalLabelPosition=bottom;verticalAlign=top;imageAspect=0;image=https://cdn-icons-png.flaticon.com/128/7223/7223258.png;" parent="1" vertex="1">
          <mxGeometry x="680" y="455" width="60" height="60" as="geometry" />
        </mxCell>
        <mxCell id="AgfTuFufSc-NYEQd6qqG-8" value="" style="shape=image;html=1;verticalLabelPosition=bottom;verticalAlign=top;imageAspect=0;image=https://cdn-icons-png.flaticon.com/128/2917/2917668.png;" parent="1" vertex="1">
          <mxGeometry x="480" y="460" width="60" height="60" as="geometry" />
        </mxCell>
        <mxCell id="AgfTuFufSc-NYEQd6qqG-10" value="" style="shape=image;html=1;verticalLabelPosition=bottom;verticalAlign=top;imageAspect=0;image=https://cdn-icons-png.flaticon.com/128/3239/3239147.png;" parent="1" vertex="1">
          <mxGeometry x="270" y="450" width="60" height="60" as="geometry" />
        </mxCell>
        <mxCell id="AgfTuFufSc-NYEQd6qqG-13" value="" style="ellipse;shape=cloud;whiteSpace=wrap;html=1;" parent="1" vertex="1">
          <mxGeometry x="350" y="160" width="310" height="200" as="geometry" />
        </mxCell>
        <mxCell id="AgfTuFufSc-NYEQd6qqG-15" value="" style="shape=image;html=1;verticalLabelPosition=bottom;verticalAlign=top;imageAspect=0;image=https://cdn-icons-png.flaticon.com/128/4424/4424430.png;" parent="1" vertex="1">
          <mxGeometry x="470" y="225" width="80" height="70" as="geometry" />
        </mxCell>
        <mxCell id="AgfTuFufSc-NYEQd6qqG-16" value="&lt;font face=&quot;Courier New&quot;&gt;Contato&lt;/font&gt;" style="text;html=1;align=center;verticalAlign=middle;whiteSpace=wrap;rounded=0;" parent="1" vertex="1">
          <mxGeometry x="680" y="530" width="60" height="30" as="geometry" />
        </mxCell>
        <mxCell id="AgfTuFufSc-NYEQd6qqG-17" value="&lt;font face=&quot;Courier New&quot;&gt;Produtos&lt;/font&gt;" style="text;html=1;align=center;verticalAlign=middle;whiteSpace=wrap;rounded=0;" parent="1" vertex="1">
          <mxGeometry x="480" y="530" width="60" height="30" as="geometry" />
        </mxCell>
        <mxCell id="AgfTuFufSc-NYEQd6qqG-18" value="&lt;font face=&quot;Courier New&quot;&gt;Clientes&lt;/font&gt;" style="text;html=1;align=center;verticalAlign=middle;whiteSpace=wrap;rounded=0;" parent="1" vertex="1">
          <mxGeometry x="270" y="530" width="60" height="30" as="geometry" />
        </mxCell>
        <mxCell id="AgfTuFufSc-NYEQd6qqG-19" value="SewDreams" style="text;html=1;align=center;verticalAlign=middle;whiteSpace=wrap;rounded=0;fontFamily=Courier New;fontSize=63;fontStyle=1" parent="1" vertex="1">
          <mxGeometry x="205" y="60" width="610" height="70" as="geometry" />
        </mxCell>
        <mxCell id="AgfTuFufSc-NYEQd6qqG-20" value="&lt;h1&gt;&lt;br&gt;&lt;/h1&gt;" style="rounded=0;whiteSpace=wrap;html=1;direction=south;fillColor=#bac8d3;strokeColor=#23445d;" parent="1" vertex="1">
          <mxGeometry x="950" width="660" height="600" as="geometry" />
        </mxCell>
        <mxCell id="AgfTuFufSc-NYEQd6qqG-21" value="&lt;font face=&quot;Courier New&quot; style=&quot;font-size: 32px;&quot;&gt;&lt;span style=&quot;font-size: 32px;&quot;&gt;&lt;span style=&quot;font-size: 32px;&quot;&gt;Clientes&lt;/span&gt;&lt;/span&gt;&lt;/font&gt;" style="text;html=1;align=center;verticalAlign=middle;whiteSpace=wrap;rounded=0;fontSize=32;fontStyle=1" parent="1" vertex="1">
          <mxGeometry x="1090" y="80" width="380" height="30" as="geometry" />
        </mxCell>
        <mxCell id="AgfTuFufSc-NYEQd6qqG-24" value="" style="rounded=0;whiteSpace=wrap;html=1;fillColor=#647687;fontColor=#ffffff;strokeColor=#314354;" parent="1" vertex="1">
          <mxGeometry x="1015" y="180" width="530" height="40" as="geometry" />
        </mxCell>
        <mxCell id="AgfTuFufSc-NYEQd6qqG-25" value="" style="rounded=0;whiteSpace=wrap;html=1;fillColor=#647687;fontColor=#ffffff;strokeColor=#314354;" parent="1" vertex="1">
          <mxGeometry x="1015" y="260" width="530" height="40" as="geometry" />
        </mxCell>
        <mxCell id="AgfTuFufSc-NYEQd6qqG-26" value="" style="rounded=0;whiteSpace=wrap;html=1;fillColor=#647687;fontColor=#ffffff;strokeColor=#314354;" parent="1" vertex="1">
          <mxGeometry x="1010" y="346.5" width="530" height="40" as="geometry" />
        </mxCell>
        <mxCell id="AgfTuFufSc-NYEQd6qqG-27" value="" style="rounded=0;whiteSpace=wrap;html=1;direction=south;fillColor=#bac8d3;strokeColor=#23445d;" parent="1" vertex="1">
          <mxGeometry x="1720" width="720" height="600" as="geometry" />
        </mxCell>
        <mxCell id="AgfTuFufSc-NYEQd6qqG-28" value="&lt;h1&gt;&lt;font style=&quot;font-size: 32px;&quot; face=&quot;Courier New&quot;&gt;Produtos&lt;/font&gt;&lt;/h1&gt;" style="text;html=1;align=center;verticalAlign=middle;whiteSpace=wrap;rounded=0;" parent="1" vertex="1">
          <mxGeometry x="1893" y="80" width="350" height="30" as="geometry" />
        </mxCell>
        <mxCell id="AgfTuFufSc-NYEQd6qqG-29" value="" style="whiteSpace=wrap;html=1;aspect=fixed;fillColor=#647687;fontColor=#ffffff;strokeColor=#314354;" parent="1" vertex="1">
          <mxGeometry x="1813" y="170" width="80" height="80" as="geometry" />
        </mxCell>
        <mxCell id="AgfTuFufSc-NYEQd6qqG-30" value="" style="whiteSpace=wrap;html=1;aspect=fixed;fillColor=#647687;fontColor=#ffffff;strokeColor=#314354;" parent="1" vertex="1">
          <mxGeometry x="2010" y="170" width="80" height="80" as="geometry" />
        </mxCell>
        <mxCell id="AgfTuFufSc-NYEQd6qqG-31" value="" style="whiteSpace=wrap;html=1;aspect=fixed;fillColor=#647687;fontColor=#ffffff;strokeColor=#314354;" parent="1" vertex="1">
          <mxGeometry x="2210" y="170" width="80" height="80" as="geometry" />
        </mxCell>
        <mxCell id="AgfTuFufSc-NYEQd6qqG-32" value="" style="whiteSpace=wrap;html=1;aspect=fixed;fillColor=#647687;fontColor=#ffffff;strokeColor=#314354;" parent="1" vertex="1">
          <mxGeometry x="1813" y="370" width="80" height="80" as="geometry" />
        </mxCell>
        <mxCell id="AgfTuFufSc-NYEQd6qqG-33" value="" style="whiteSpace=wrap;html=1;aspect=fixed;fillColor=#647687;fontColor=#ffffff;strokeColor=#314354;" parent="1" vertex="1">
          <mxGeometry x="2010" y="370" width="80" height="80" as="geometry" />
        </mxCell>
        <mxCell id="AgfTuFufSc-NYEQd6qqG-34" value="" style="whiteSpace=wrap;html=1;aspect=fixed;fillColor=#647687;fontColor=#ffffff;strokeColor=#314354;" parent="1" vertex="1">
          <mxGeometry x="2210" y="370" width="80" height="80" as="geometry" />
        </mxCell>
        <mxCell id="AgfTuFufSc-NYEQd6qqG-38" style="edgeStyle=orthogonalEdgeStyle;rounded=0;orthogonalLoop=1;jettySize=auto;html=1;exitX=1;exitY=0.5;exitDx=0;exitDy=0;" parent="1" source="AgfTuFufSc-NYEQd6qqG-27" target="AgfTuFufSc-NYEQd6qqG-27" edge="1">
          <mxGeometry relative="1" as="geometry" />
        </mxCell>
        <mxCell id="AgfTuFufSc-NYEQd6qqG-39" value="" style="rounded=0;whiteSpace=wrap;html=1;direction=south;fillColor=#bac8d3;strokeColor=#23445d;fontFamily=Courier New;fontStyle=1" parent="1" vertex="1">
          <mxGeometry x="2520" width="720" height="600" as="geometry" />
        </mxCell>
        <mxCell id="AgfTuFufSc-NYEQd6qqG-40" value="&lt;b&gt;&lt;font style=&quot;font-size: 32px;&quot;&gt;Contato&lt;/font&gt;&lt;/b&gt;" style="text;html=1;align=center;verticalAlign=middle;whiteSpace=wrap;rounded=0;fontFamily=Courier New;" parent="1" vertex="1">
          <mxGeometry x="2755" y="80" width="250" height="30" as="geometry" />
        </mxCell>
        <mxCell id="AgfTuFufSc-NYEQd6qqG-41" value="&lt;font face=&quot;Courier New&quot;&gt;&lt;b&gt;Voltar&lt;/b&gt;&lt;/font&gt;" style="labelPosition=center;verticalLabelPosition=middle;align=center;html=1;shape=mxgraph.basic.button;dx=10;whiteSpace=wrap;fillColor=#647687;fontColor=#ffffff;strokeColor=#314354;" parent="1" vertex="1">
          <mxGeometry x="1760" y="530" width="100" height="30" as="geometry" />
        </mxCell>
        <mxCell id="AgfTuFufSc-NYEQd6qqG-42" value="&lt;font face=&quot;Courier New&quot;&gt;&lt;b&gt;Próximo&lt;/b&gt;&lt;/font&gt;" style="labelPosition=center;verticalLabelPosition=middle;align=center;html=1;shape=mxgraph.basic.button;dx=10;whiteSpace=wrap;fillColor=#647687;strokeColor=#314354;fontColor=#ffffff;" parent="1" vertex="1">
          <mxGeometry x="2310" y="530" width="100" height="30" as="geometry" />
        </mxCell>
        <mxCell id="AgfTuFufSc-NYEQd6qqG-43" value="&lt;font face=&quot;Courier New&quot;&gt;&lt;b&gt;Próximo&lt;/b&gt;&lt;/font&gt;" style="labelPosition=center;verticalLabelPosition=middle;align=center;html=1;shape=mxgraph.basic.button;dx=10;whiteSpace=wrap;fillColor=#647687;fontColor=#ffffff;strokeColor=#314354;" parent="1" vertex="1">
          <mxGeometry x="1490" y="530" width="100" height="30" as="geometry" />
        </mxCell>
        <mxCell id="AgfTuFufSc-NYEQd6qqG-44" value="&lt;font face=&quot;Courier New&quot;&gt;&lt;b&gt;Voltar&lt;/b&gt;&lt;/font&gt;" style="labelPosition=center;verticalLabelPosition=middle;align=center;html=1;shape=mxgraph.basic.button;dx=10;whiteSpace=wrap;fillColor=#647687;fontColor=#ffffff;strokeColor=#314354;" parent="1" vertex="1">
          <mxGeometry x="990" y="530" width="100" height="30" as="geometry" />
        </mxCell>
        <mxCell id="AgfTuFufSc-NYEQd6qqG-45" value="&lt;font face=&quot;Courier New&quot;&gt;&lt;b&gt;Voltar&lt;/b&gt;&lt;/font&gt;" style="labelPosition=center;verticalLabelPosition=middle;align=center;html=1;shape=mxgraph.basic.button;dx=10;whiteSpace=wrap;fillColor=#647687;fontColor=#ffffff;strokeColor=#314354;" parent="1" vertex="1">
          <mxGeometry x="2550" y="530" width="100" height="30" as="geometry" />
        </mxCell>
        <mxCell id="AgfTuFufSc-NYEQd6qqG-50" value="&lt;font size=&quot;1&quot; face=&quot;Courier New&quot;&gt;&lt;b style=&quot;font-size: 17px;&quot;&gt;Email&lt;/b&gt;&lt;/font&gt;" style="text;html=1;align=center;verticalAlign=middle;whiteSpace=wrap;rounded=0;" parent="1" vertex="1">
          <mxGeometry x="2855" y="230" width="60" height="30" as="geometry" />
        </mxCell>
        <mxCell id="AgfTuFufSc-NYEQd6qqG-53" value="" style="verticalLabelPosition=bottom;verticalAlign=top;html=1;shape=mxgraph.basic.rect;fillColor2=none;strokeWidth=1;size=20;indent=5;fillColor=#647687;fontColor=#ffffff;strokeColor=#314354;" parent="1" vertex="1">
          <mxGeometry x="2720" y="180" width="320" height="30" as="geometry" />
        </mxCell>
        <mxCell id="AgfTuFufSc-NYEQd6qqG-54" value="&lt;font face=&quot;Courier New&quot; style=&quot;font-size: 16px;&quot;&gt;&lt;b&gt;(43) 1234-5678&lt;/b&gt;&lt;/font&gt;" style="text;html=1;align=center;verticalAlign=middle;whiteSpace=wrap;rounded=0;" parent="1" vertex="1">
          <mxGeometry x="2720" y="180" width="320" height="30" as="geometry" />
        </mxCell>
        <mxCell id="AgfTuFufSc-NYEQd6qqG-55" value="" style="verticalLabelPosition=bottom;verticalAlign=top;html=1;shape=mxgraph.basic.rect;fillColor2=none;strokeWidth=1;size=20;indent=5;fillColor=#647687;fontColor=#ffffff;strokeColor=#314354;" parent="1" vertex="1">
          <mxGeometry x="2725" y="260" width="320" height="30" as="geometry" />
        </mxCell>
        <mxCell id="AgfTuFufSc-NYEQd6qqG-56" value="&lt;font color=&quot;#030303&quot; style=&quot;font-size: 16px;&quot; face=&quot;Courier New&quot;&gt;&lt;b&gt;@sewdreams.com.br&lt;/b&gt;&lt;/font&gt;" style="text;html=1;align=center;verticalAlign=middle;whiteSpace=wrap;rounded=0;" parent="1" vertex="1">
          <mxGeometry x="2852.5" y="260" width="90" height="30" as="geometry" />
        </mxCell>
        <mxCell id="9omwzjIVflfiaItljNFr-4" value="&lt;font face=&quot;Courier New&quot;&gt;&lt;b&gt;Nome&lt;/b&gt;&lt;/font&gt;" style="text;html=1;align=center;verticalAlign=middle;whiteSpace=wrap;rounded=0;" parent="1" vertex="1">
          <mxGeometry x="1010" y="150" width="60" height="30" as="geometry" />
        </mxCell>
        <mxCell id="9omwzjIVflfiaItljNFr-5" value="&lt;font face=&quot;Courier New&quot;&gt;&lt;b&gt;Telefone&lt;/b&gt;&lt;/font&gt;" style="text;html=1;align=center;verticalAlign=middle;whiteSpace=wrap;rounded=0;" parent="1" vertex="1">
          <mxGeometry x="1020" y="230" width="60" height="30" as="geometry" />
        </mxCell>
        <mxCell id="9omwzjIVflfiaItljNFr-7" value="&lt;font face=&quot;Courier New&quot;&gt;&lt;b&gt;Modelos&lt;/b&gt;&lt;/font&gt;" style="text;html=1;align=center;verticalAlign=middle;whiteSpace=wrap;rounded=0;" parent="1" vertex="1">
          <mxGeometry x="1823" y="265" width="60" height="30" as="geometry" />
        </mxCell>
        <mxCell id="9omwzjIVflfiaItljNFr-8" value="&lt;font face=&quot;Courier New&quot;&gt;&lt;b&gt;Estampas&lt;/b&gt;&lt;/font&gt;" style="text;html=1;align=center;verticalAlign=middle;whiteSpace=wrap;rounded=0;" parent="1" vertex="1">
          <mxGeometry x="2020" y="265" width="60" height="30" as="geometry" />
        </mxCell>
        <mxCell id="9omwzjIVflfiaItljNFr-9" value="&lt;font face=&quot;Courier New&quot;&gt;&lt;b&gt;Tamanhos&lt;/b&gt;&lt;/font&gt;" style="text;html=1;align=center;verticalAlign=middle;whiteSpace=wrap;rounded=0;" parent="1" vertex="1">
          <mxGeometry x="1823" y="465" width="60" height="30" as="geometry" />
        </mxCell>
        <mxCell id="9omwzjIVflfiaItljNFr-10" value="&lt;font face=&quot;Courier New&quot;&gt;&lt;b&gt;Cores&lt;/b&gt;&lt;/font&gt;" style="text;html=1;align=center;verticalAlign=middle;whiteSpace=wrap;rounded=0;" parent="1" vertex="1">
          <mxGeometry x="2020" y="465" width="60" height="30" as="geometry" />
        </mxCell>
        <mxCell id="9omwzjIVflfiaItljNFr-11" value="&lt;font face=&quot;Courier New&quot;&gt;&lt;b&gt;Quantidade&lt;/b&gt;&lt;/font&gt;" style="text;html=1;align=center;verticalAlign=middle;whiteSpace=wrap;rounded=0;" parent="1" vertex="1">
          <mxGeometry x="2220" y="265" width="60" height="30" as="geometry" />
        </mxCell>
        <mxCell id="9omwzjIVflfiaItljNFr-12" value="&lt;font face=&quot;Courier New&quot;&gt;&lt;b&gt;Personalize sua Logo&lt;/b&gt;&lt;/font&gt;" style="text;html=1;align=center;verticalAlign=middle;whiteSpace=wrap;rounded=0;" parent="1" vertex="1">
          <mxGeometry x="2220" y="465" width="60" height="30" as="geometry" />
        </mxCell>
        <mxCell id="9omwzjIVflfiaItljNFr-13" value="&lt;font face=&quot;Courier New&quot;&gt;&lt;b&gt;CNPJ da Empresa&lt;/b&gt;&lt;/font&gt;" style="text;html=1;align=center;verticalAlign=middle;whiteSpace=wrap;rounded=0;" parent="1" vertex="1">
          <mxGeometry x="990" y="316.5" width="170" height="30" as="geometry" />
        </mxCell>
        <mxCell id="9omwzjIVflfiaItljNFr-15" value="" style="ellipse;shape=cloud;whiteSpace=wrap;html=1;" parent="1" vertex="1">
          <mxGeometry x="2800" y="425" width="160" height="110" as="geometry" />
        </mxCell>
        <mxCell id="9omwzjIVflfiaItljNFr-16" value="" style="shape=image;html=1;verticalLabelPosition=bottom;verticalAlign=top;imageAspect=0;image=https://cdn-icons-png.flaticon.com/128/4424/4424430.png;" parent="1" vertex="1">
          <mxGeometry x="2857.5" y="455" width="50" height="50" as="geometry" />
        </mxCell>
        <mxCell id="9omwzjIVflfiaItljNFr-17" value="&lt;font size=&quot;1&quot; face=&quot;Courier New&quot; style=&quot;&quot;&gt;&lt;b style=&quot;font-size: 19px;&quot;&gt;SewDreams&lt;/b&gt;&lt;/font&gt;" style="text;html=1;align=center;verticalAlign=middle;whiteSpace=wrap;rounded=0;" parent="1" vertex="1">
          <mxGeometry x="2842.5" y="540" width="85" height="30" as="geometry" />
        </mxCell>
        <mxCell id="9omwzjIVflfiaItljNFr-18" value="&lt;font size=&quot;1&quot; face=&quot;Courier New&quot;&gt;&lt;b style=&quot;font-size: 14px;&quot;&gt;Agradecemos pela&amp;nbsp; preferência !!&lt;/b&gt;&lt;/font&gt;" style="text;html=1;align=center;verticalAlign=middle;whiteSpace=wrap;rounded=0;" parent="1" vertex="1">
          <mxGeometry x="3100" y="530" width="130" height="30" as="geometry" />
        </mxCell>
        <mxCell id="9omwzjIVflfiaItljNFr-19" value="" style="shape=image;verticalLabelPosition=bottom;labelBackgroundColor=default;verticalAlign=top;aspect=fixed;imageAspect=0;image=https://cdn-icons-png.flaticon.com/128/4002/4002506.png;" parent="1" vertex="1">
          <mxGeometry x="2219" y="190" width="61" height="61" as="geometry" />
        </mxCell>
        <mxCell id="9omwzjIVflfiaItljNFr-23" value="" style="shape=image;verticalLabelPosition=bottom;labelBackgroundColor=default;verticalAlign=top;aspect=fixed;imageAspect=0;image=https://cdn-icons-png.flaticon.com/128/5294/5294796.png;" parent="1" vertex="1">
          <mxGeometry x="2215.5" y="384" width="68" height="68" as="geometry" />
        </mxCell>
        <mxCell id="9omwzjIVflfiaItljNFr-24" value="" style="shape=image;verticalLabelPosition=bottom;labelBackgroundColor=default;verticalAlign=top;aspect=fixed;imageAspect=0;image=https://cdn-icons-png.flaticon.com/128/2280/2280559.png;" parent="1" vertex="1">
          <mxGeometry x="2022" y="392" width="58" height="58" as="geometry" />
        </mxCell>
        <mxCell id="9omwzjIVflfiaItljNFr-25" value="" style="shape=image;verticalLabelPosition=bottom;labelBackgroundColor=default;verticalAlign=top;aspect=fixed;imageAspect=0;image=https://cdn-icons-png.flaticon.com/128/8996/8996654.png;" parent="1" vertex="1">
          <mxGeometry x="1820" y="386.5" width="63" height="63" as="geometry" />
        </mxCell>
        <mxCell id="9omwzjIVflfiaItljNFr-26" value="" style="shape=image;verticalLabelPosition=bottom;labelBackgroundColor=default;verticalAlign=top;aspect=fixed;imageAspect=0;image=https://cdn-icons-png.flaticon.com/128/3005/3005895.png;" parent="1" vertex="1">
          <mxGeometry x="2025" y="195" width="55" height="55" as="geometry" />
        </mxCell>
        <mxCell id="9omwzjIVflfiaItljNFr-27" value="" style="shape=image;verticalLabelPosition=bottom;labelBackgroundColor=default;verticalAlign=top;aspect=fixed;imageAspect=0;image=https://cdn-icons-png.flaticon.com/128/4029/4029200.png;" parent="1" vertex="1">
          <mxGeometry x="1823.5" y="190.5" width="59.5" height="59.5" as="geometry" />
        </mxCell>
        <mxCell id="9omwzjIVflfiaItljNFr-28" value="&lt;font face=&quot;Courier New&quot;&gt;&lt;b&gt;Endereço&lt;/b&gt;&lt;/font&gt;" style="text;html=1;align=center;verticalAlign=middle;whiteSpace=wrap;rounded=0;" parent="1" vertex="1">
          <mxGeometry x="1020" y="400" width="60" height="30" as="geometry" />
        </mxCell>
        <mxCell id="9omwzjIVflfiaItljNFr-29" value="" style="rounded=0;whiteSpace=wrap;html=1;fillColor=#647687;fontColor=#ffffff;strokeColor=#314354;" parent="1" vertex="1">
          <mxGeometry x="1010" y="430" width="530" height="40" as="geometry" />
        </mxCell>
        <mxCell id="9omwzjIVflfiaItljNFr-31" value="&lt;font size=&quot;1&quot; face=&quot;Courier New&quot;&gt;&lt;b style=&quot;font-size: 17px;&quot;&gt;Telefone&lt;/b&gt;&lt;/font&gt;" style="text;html=1;align=center;verticalAlign=middle;whiteSpace=wrap;rounded=0;" parent="1" vertex="1">
          <mxGeometry x="2855" y="150" width="60" height="30" as="geometry" />
        </mxCell>
        <mxCell id="9omwzjIVflfiaItljNFr-32" value="&lt;font size=&quot;1&quot; face=&quot;Courier New&quot;&gt;&lt;b style=&quot;font-size: 17px;&quot;&gt;Endereço&lt;/b&gt;&lt;/font&gt;" style="text;html=1;align=center;verticalAlign=middle;whiteSpace=wrap;rounded=0;" parent="1" vertex="1">
          <mxGeometry x="2855" y="310" width="60" height="30" as="geometry" />
        </mxCell>
        <mxCell id="9omwzjIVflfiaItljNFr-33" value="" style="rounded=0;whiteSpace=wrap;html=1;fillColor=#647687;fontColor=#ffffff;strokeColor=#314354;" parent="1" vertex="1">
          <mxGeometry x="2725" y="346.5" width="320" height="30" as="geometry" />
        </mxCell>
        <mxCell id="9omwzjIVflfiaItljNFr-34" value="&lt;font color=&quot;#030303&quot;&gt;&lt;font style=&quot;&quot; face=&quot;Courier New&quot;&gt;&lt;b style=&quot;&quot;&gt;Avenida encantada, Rua dos Sonhos, Nª7&lt;/b&gt;&lt;/font&gt;&lt;/font&gt;" style="text;html=1;align=center;verticalAlign=middle;whiteSpace=wrap;rounded=0;" parent="1" vertex="1">
          <mxGeometry x="2686.25" y="346.5" width="387.5" height="30" as="geometry" />
        </mxCell>
        <mxCell id="9omwzjIVflfiaItljNFr-35" value="" style="verticalLabelPosition=bottom;verticalAlign=top;html=1;shape=mxgraph.basic.smiley;fillColor=#ffff88;strokeColor=#36393d;fontSize=8;" parent="1" vertex="1">
          <mxGeometry x="3155" y="575" width="20" height="20" as="geometry" />
        </mxCell>
        <mxCell id="9omwzjIVflfiaItljNFr-38" value="" style="rounded=1;whiteSpace=wrap;html=1;direction=south;fillColor=#bac8d3;strokeColor=#23445d;" parent="1" vertex="1">
          <mxGeometry x="205" y="680" width="320" height="630" as="geometry" />
        </mxCell>
        <mxCell id="9omwzjIVflfiaItljNFr-41" value="&lt;h1 style=&quot;&quot;&gt;&lt;font style=&quot;font-size: 44px;&quot;&gt;SewDreams&lt;/font&gt;&lt;/h1&gt;" style="text;html=1;align=center;verticalAlign=middle;whiteSpace=wrap;rounded=0;fontFamily=Courier New;fontStyle=1;fontSize=13;" parent="1" vertex="1">
          <mxGeometry x="322.5" y="780" width="85" height="30" as="geometry" />
        </mxCell>
        <mxCell id="9omwzjIVflfiaItljNFr-42" value="" style="ellipse;shape=cloud;whiteSpace=wrap;html=1;" parent="1" vertex="1">
          <mxGeometry x="240" y="850" width="250" height="200" as="geometry" />
        </mxCell>
        <mxCell id="9omwzjIVflfiaItljNFr-43" value="" style="shape=image;html=1;verticalLabelPosition=bottom;verticalAlign=top;imageAspect=0;image=https://cdn-icons-png.flaticon.com/128/4424/4424430.png;" parent="1" vertex="1">
          <mxGeometry x="326" y="912.5" width="87.5" height="75" as="geometry" />
        </mxCell>
        <mxCell id="9omwzjIVflfiaItljNFr-44" value="" style="shape=ext;double=1;whiteSpace=wrap;html=1;aspect=fixed;fillColor=#647687;fontColor=#ffffff;strokeColor=#314354;" parent="1" vertex="1">
          <mxGeometry x="230" y="1150" width="60" height="60" as="geometry" />
        </mxCell>
        <mxCell id="9omwzjIVflfiaItljNFr-45" value="" style="shape=image;html=1;verticalLabelPosition=bottom;verticalAlign=top;imageAspect=0;image=https://cdn-icons-png.flaticon.com/128/3239/3239147.png;" parent="1" vertex="1">
          <mxGeometry x="235" y="1160" width="50" height="50" as="geometry" />
        </mxCell>
        <mxCell id="9omwzjIVflfiaItljNFr-46" value="" style="shape=ext;double=1;whiteSpace=wrap;html=1;aspect=fixed;fillColor=#647687;fontColor=#ffffff;strokeColor=#314354;" parent="1" vertex="1">
          <mxGeometry x="326" y="1150" width="60" height="60" as="geometry" />
        </mxCell>
        <mxCell id="9omwzjIVflfiaItljNFr-47" value="" style="shape=image;html=1;verticalLabelPosition=bottom;verticalAlign=top;imageAspect=0;image=https://cdn-icons-png.flaticon.com/128/2917/2917668.png;" parent="1" vertex="1">
          <mxGeometry x="330" y="1169" width="50" height="50" as="geometry" />
        </mxCell>
        <mxCell id="9omwzjIVflfiaItljNFr-48" value="" style="shape=ext;double=1;whiteSpace=wrap;html=1;aspect=fixed;fillColor=#647687;fontColor=#ffffff;strokeColor=#314354;" parent="1" vertex="1">
          <mxGeometry x="430" y="1150" width="60" height="60" as="geometry" />
        </mxCell>
        <mxCell id="9omwzjIVflfiaItljNFr-49" value="" style="shape=image;html=1;verticalLabelPosition=bottom;verticalAlign=top;imageAspect=0;image=https://cdn-icons-png.flaticon.com/128/7223/7223258.png;" parent="1" vertex="1">
          <mxGeometry x="437.5" y="1160" width="45" height="50" as="geometry" />
        </mxCell>
        <mxCell id="9omwzjIVflfiaItljNFr-50" value="&lt;font face=&quot;Courier New&quot;&gt;Clientes&lt;/font&gt;" style="text;html=1;align=center;verticalAlign=middle;whiteSpace=wrap;rounded=0;" parent="1" vertex="1">
          <mxGeometry x="230" y="1219" width="60" height="30" as="geometry" />
        </mxCell>
        <mxCell id="9omwzjIVflfiaItljNFr-51" value="&lt;font face=&quot;Courier New&quot;&gt;Produtos&lt;/font&gt;" style="text;html=1;align=center;verticalAlign=middle;whiteSpace=wrap;rounded=0;" parent="1" vertex="1">
          <mxGeometry x="325" y="1219" width="60" height="30" as="geometry" />
        </mxCell>
        <mxCell id="9omwzjIVflfiaItljNFr-52" value="&lt;font face=&quot;Courier New&quot;&gt;Contato&lt;/font&gt;" style="text;html=1;align=center;verticalAlign=middle;whiteSpace=wrap;rounded=0;" parent="1" vertex="1">
          <mxGeometry x="430" y="1219" width="60" height="30" as="geometry" />
        </mxCell>
        <mxCell id="q7iPZD9RiJR8RyIHpfa4-1" value="" style="rounded=1;whiteSpace=wrap;html=1;direction=south;fillColor=#bac8d3;strokeColor=#23445d;" vertex="1" parent="1">
          <mxGeometry x="1100" y="680" width="325" height="630" as="geometry" />
        </mxCell>
        <mxCell id="q7iPZD9RiJR8RyIHpfa4-2" value="&lt;h1&gt;&lt;font face=&quot;Courier New&quot;&gt;Clientes&lt;/font&gt;&lt;/h1&gt;" style="text;html=1;align=center;verticalAlign=middle;whiteSpace=wrap;rounded=0;" vertex="1" parent="1">
          <mxGeometry x="1232.5" y="750" width="60" height="30" as="geometry" />
        </mxCell>
        <mxCell id="q7iPZD9RiJR8RyIHpfa4-4" value="&lt;font face=&quot;Courier New&quot;&gt;&lt;b&gt;Nome&lt;/b&gt;&lt;/font&gt;" style="text;html=1;align=center;verticalAlign=middle;whiteSpace=wrap;rounded=0;" vertex="1" parent="1">
          <mxGeometry x="1100" y="810" width="60" height="30" as="geometry" />
        </mxCell>
        <mxCell id="q7iPZD9RiJR8RyIHpfa4-5" value="" style="rounded=0;whiteSpace=wrap;html=1;fillColor=#647687;fontColor=#ffffff;strokeColor=#314354;" vertex="1" parent="1">
          <mxGeometry x="1108.75" y="840" width="297.5" height="30" as="geometry" />
        </mxCell>
        <mxCell id="q7iPZD9RiJR8RyIHpfa4-6" value="&lt;font face=&quot;Courier New&quot;&gt;&lt;b&gt;Telefone&lt;/b&gt;&lt;/font&gt;" style="text;html=1;align=center;verticalAlign=middle;whiteSpace=wrap;rounded=0;" vertex="1" parent="1">
          <mxGeometry x="1108.75" y="880" width="60" height="30" as="geometry" />
        </mxCell>
        <mxCell id="q7iPZD9RiJR8RyIHpfa4-7" value="" style="rounded=0;whiteSpace=wrap;html=1;fillColor=#647687;fontColor=#ffffff;strokeColor=#314354;" vertex="1" parent="1">
          <mxGeometry x="1110" y="912.5" width="297.5" height="30" as="geometry" />
        </mxCell>
        <mxCell id="q7iPZD9RiJR8RyIHpfa4-8" value="&lt;font face=&quot;Courier New&quot;&gt;CNPJ da Empresa&lt;/font&gt;" style="text;html=1;align=center;verticalAlign=middle;whiteSpace=wrap;rounded=0;fontStyle=1" vertex="1" parent="1">
          <mxGeometry x="1100" y="960" width="130" height="30" as="geometry" />
        </mxCell>
        <mxCell id="q7iPZD9RiJR8RyIHpfa4-9" value="" style="rounded=0;whiteSpace=wrap;html=1;fillColor=#647687;fontColor=#ffffff;strokeColor=#314354;" vertex="1" parent="1">
          <mxGeometry x="1108.75" y="1000" width="300" height="30" as="geometry" />
        </mxCell>
        <mxCell id="q7iPZD9RiJR8RyIHpfa4-10" value="" style="rounded=0;whiteSpace=wrap;html=1;fillColor=#647687;fontColor=#ffffff;strokeColor=#314354;" vertex="1" parent="1">
          <mxGeometry x="1111.25" y="1080" width="297.5" height="30" as="geometry" />
        </mxCell>
        <mxCell id="q7iPZD9RiJR8RyIHpfa4-11" value="&lt;font face=&quot;Courier New&quot;&gt;&lt;b&gt;Endereço&lt;/b&gt;&lt;/font&gt;" style="text;html=1;align=center;verticalAlign=middle;whiteSpace=wrap;rounded=0;" vertex="1" parent="1">
          <mxGeometry x="1111.25" y="1040" width="60" height="30" as="geometry" />
        </mxCell>
        <mxCell id="q7iPZD9RiJR8RyIHpfa4-12" value="&lt;font face=&quot;Courier New&quot;&gt;&lt;b&gt;Voltar&lt;/b&gt;&lt;/font&gt;" style="labelPosition=center;verticalLabelPosition=middle;align=center;html=1;shape=mxgraph.basic.button;dx=10;whiteSpace=wrap;fillColor=#647687;fontColor=#ffffff;strokeColor=#314354;" vertex="1" parent="1">
          <mxGeometry x="1115" y="1200" width="100" height="41" as="geometry" />
        </mxCell>
        <mxCell id="q7iPZD9RiJR8RyIHpfa4-13" value="&lt;font face=&quot;Courier New&quot;&gt;&lt;b&gt;Próximo&lt;/b&gt;&lt;/font&gt;" style="labelPosition=center;verticalLabelPosition=middle;align=center;html=1;shape=mxgraph.basic.button;dx=10;whiteSpace=wrap;fillColor=#647687;fontColor=#ffffff;strokeColor=#314354;" vertex="1" parent="1">
          <mxGeometry x="1310" y="1200" width="100" height="41" as="geometry" />
        </mxCell>
        <mxCell id="q7iPZD9RiJR8RyIHpfa4-14" value="" style="rounded=1;whiteSpace=wrap;html=1;direction=south;fillColor=#bac8d3;strokeColor=#23445d;" vertex="1" parent="1">
          <mxGeometry x="1915" y="680" width="330" height="630" as="geometry" />
        </mxCell>
        <mxCell id="q7iPZD9RiJR8RyIHpfa4-15" value="&lt;h1&gt;&lt;font face=&quot;Courier New&quot;&gt;Produtos&lt;/font&gt;&lt;/h1&gt;" style="text;html=1;align=center;verticalAlign=middle;whiteSpace=wrap;rounded=0;" vertex="1" parent="1">
          <mxGeometry x="2050" y="750" width="60" height="30" as="geometry" />
        </mxCell>
        <mxCell id="q7iPZD9RiJR8RyIHpfa4-16" value="" style="whiteSpace=wrap;html=1;aspect=fixed;fillColor=#647687;fontColor=#ffffff;strokeColor=#314354;" vertex="1" parent="1">
          <mxGeometry x="1950" y="850" width="60" height="60" as="geometry" />
        </mxCell>
        <mxCell id="q7iPZD9RiJR8RyIHpfa4-17" value="" style="whiteSpace=wrap;html=1;aspect=fixed;fillColor=#647687;fontColor=#ffffff;strokeColor=#314354;" vertex="1" parent="1">
          <mxGeometry x="2130" y="850" width="60" height="60" as="geometry" />
        </mxCell>
        <mxCell id="q7iPZD9RiJR8RyIHpfa4-18" value="" style="whiteSpace=wrap;html=1;aspect=fixed;fillColor=#647687;fontColor=#ffffff;strokeColor=#314354;" vertex="1" parent="1">
          <mxGeometry x="1950" y="970" width="60" height="60" as="geometry" />
        </mxCell>
        <mxCell id="q7iPZD9RiJR8RyIHpfa4-19" value="" style="whiteSpace=wrap;html=1;aspect=fixed;fillColor=#647687;fontColor=#ffffff;strokeColor=#314354;" vertex="1" parent="1">
          <mxGeometry x="2130" y="965" width="60" height="60" as="geometry" />
        </mxCell>
        <mxCell id="q7iPZD9RiJR8RyIHpfa4-20" value="" style="whiteSpace=wrap;html=1;aspect=fixed;fillColor=#647687;fontColor=#ffffff;strokeColor=#314354;" vertex="1" parent="1">
          <mxGeometry x="1950" y="1090" width="60" height="60" as="geometry" />
        </mxCell>
        <mxCell id="q7iPZD9RiJR8RyIHpfa4-21" value="" style="whiteSpace=wrap;html=1;aspect=fixed;fillColor=#647687;fontColor=#ffffff;strokeColor=#314354;" vertex="1" parent="1">
          <mxGeometry x="2130" y="1090" width="60" height="60" as="geometry" />
        </mxCell>
        <mxCell id="q7iPZD9RiJR8RyIHpfa4-22" value="&lt;font face=&quot;Courier New&quot;&gt;&lt;b&gt;Voltar&lt;/b&gt;&lt;/font&gt;" style="labelPosition=center;verticalLabelPosition=middle;align=center;html=1;shape=mxgraph.basic.button;dx=10;whiteSpace=wrap;fillColor=#647687;fontColor=#ffffff;strokeColor=#314354;" vertex="1" parent="1">
          <mxGeometry x="1930" y="1201" width="100" height="40" as="geometry" />
        </mxCell>
        <mxCell id="q7iPZD9RiJR8RyIHpfa4-23" value="&lt;font face=&quot;Courier New&quot;&gt;&lt;b&gt;Próximo&lt;/b&gt;&lt;/font&gt;" style="labelPosition=center;verticalLabelPosition=middle;align=center;html=1;shape=mxgraph.basic.button;dx=10;whiteSpace=wrap;fillColor=#647687;fontColor=#ffffff;strokeColor=#314354;" vertex="1" parent="1">
          <mxGeometry x="2120" y="1200" width="100" height="41" as="geometry" />
        </mxCell>
        <mxCell id="q7iPZD9RiJR8RyIHpfa4-24" value="&lt;font face=&quot;Courier New&quot;&gt;Modelos&lt;/font&gt;" style="text;html=1;align=center;verticalAlign=middle;whiteSpace=wrap;rounded=0;" vertex="1" parent="1">
          <mxGeometry x="1950" y="912.5" width="60" height="30" as="geometry" />
        </mxCell>
        <mxCell id="q7iPZD9RiJR8RyIHpfa4-25" value="&lt;font face=&quot;Courier New&quot;&gt;Estampas&lt;/font&gt;" style="text;html=1;align=center;verticalAlign=middle;whiteSpace=wrap;rounded=0;" vertex="1" parent="1">
          <mxGeometry x="2130" y="910" width="60" height="30" as="geometry" />
        </mxCell>
        <mxCell id="q7iPZD9RiJR8RyIHpfa4-26" value="&lt;font face=&quot;Courier New&quot;&gt;Quantidade&lt;/font&gt;" style="text;html=1;align=center;verticalAlign=middle;whiteSpace=wrap;rounded=0;" vertex="1" parent="1">
          <mxGeometry x="1950" y="1030" width="60" height="30" as="geometry" />
        </mxCell>
        <mxCell id="q7iPZD9RiJR8RyIHpfa4-27" value="&lt;font face=&quot;Courier New&quot;&gt;Tamanhos&lt;/font&gt;" style="text;html=1;align=center;verticalAlign=middle;whiteSpace=wrap;rounded=0;" vertex="1" parent="1">
          <mxGeometry x="2130" y="1025" width="60" height="30" as="geometry" />
        </mxCell>
        <mxCell id="q7iPZD9RiJR8RyIHpfa4-28" value="&lt;font face=&quot;Courier New&quot;&gt;Cores&lt;/font&gt;" style="text;html=1;align=center;verticalAlign=middle;whiteSpace=wrap;rounded=0;" vertex="1" parent="1">
          <mxGeometry x="1950" y="1150" width="60" height="30" as="geometry" />
        </mxCell>
        <mxCell id="q7iPZD9RiJR8RyIHpfa4-29" value="&lt;font face=&quot;Courier New&quot;&gt;Personalize sua Logo&lt;/font&gt;" style="text;html=1;align=center;verticalAlign=middle;whiteSpace=wrap;rounded=0;" vertex="1" parent="1">
          <mxGeometry x="2130" y="1160" width="60" height="30" as="geometry" />
        </mxCell>
        <mxCell id="q7iPZD9RiJR8RyIHpfa4-30" value="" style="shape=image;verticalLabelPosition=bottom;labelBackgroundColor=default;verticalAlign=top;aspect=fixed;imageAspect=0;image=https://cdn-icons-png.flaticon.com/128/4029/4029200.png;" vertex="1" parent="1">
          <mxGeometry x="1960" y="870" width="40" height="40" as="geometry" />
        </mxCell>
        <mxCell id="q7iPZD9RiJR8RyIHpfa4-31" value="" style="shape=image;verticalLabelPosition=bottom;labelBackgroundColor=default;verticalAlign=top;aspect=fixed;imageAspect=0;image=https://cdn-icons-png.flaticon.com/128/3005/3005895.png;" vertex="1" parent="1">
          <mxGeometry x="2140" y="870" width="40" height="40" as="geometry" />
        </mxCell>
        <mxCell id="q7iPZD9RiJR8RyIHpfa4-32" value="" style="shape=image;verticalLabelPosition=bottom;labelBackgroundColor=default;verticalAlign=top;aspect=fixed;imageAspect=0;image=https://cdn-icons-png.flaticon.com/128/4002/4002506.png;" vertex="1" parent="1">
          <mxGeometry x="1958.5" y="987" width="43" height="43" as="geometry" />
        </mxCell>
        <mxCell id="q7iPZD9RiJR8RyIHpfa4-33" value="" style="shape=image;verticalLabelPosition=bottom;labelBackgroundColor=default;verticalAlign=top;aspect=fixed;imageAspect=0;image=https://cdn-icons-png.flaticon.com/128/8996/8996654.png;" vertex="1" parent="1">
          <mxGeometry x="2136.5" y="976.5" width="47" height="47" as="geometry" />
        </mxCell>
        <mxCell id="q7iPZD9RiJR8RyIHpfa4-34" value="" style="shape=image;verticalLabelPosition=bottom;labelBackgroundColor=default;verticalAlign=top;aspect=fixed;imageAspect=0;image=https://cdn-icons-png.flaticon.com/128/2280/2280559.png;" vertex="1" parent="1">
          <mxGeometry x="1957.5" y="1106" width="44" height="44" as="geometry" />
        </mxCell>
        <mxCell id="q7iPZD9RiJR8RyIHpfa4-35" value="" style="shape=image;verticalLabelPosition=bottom;labelBackgroundColor=default;verticalAlign=top;aspect=fixed;imageAspect=0;image=https://cdn-icons-png.flaticon.com/128/5294/5294796.png;" vertex="1" parent="1">
          <mxGeometry x="2136.5" y="1100.5" width="49.5" height="49.5" as="geometry" />
        </mxCell>
        <mxCell id="q7iPZD9RiJR8RyIHpfa4-36" value="" style="rounded=1;whiteSpace=wrap;html=1;direction=south;fillColor=#bac8d3;strokeColor=#23445d;" vertex="1" parent="1">
          <mxGeometry x="2732.5" y="680" width="330" height="630" as="geometry" />
        </mxCell>
        <mxCell id="q7iPZD9RiJR8RyIHpfa4-37" value="&lt;h1&gt;&lt;font face=&quot;Courier New&quot;&gt;Contato&lt;/font&gt;&lt;/h1&gt;" style="text;html=1;align=center;verticalAlign=middle;whiteSpace=wrap;rounded=0;" vertex="1" parent="1">
          <mxGeometry x="2867.5" y="750" width="60" height="30" as="geometry" />
        </mxCell>
        <mxCell id="q7iPZD9RiJR8RyIHpfa4-38" value="&lt;font face=&quot;Courier New&quot;&gt;Telefone&lt;/font&gt;" style="text;html=1;align=center;verticalAlign=middle;whiteSpace=wrap;rounded=0;" vertex="1" parent="1">
          <mxGeometry x="2867.5" y="810" width="60" height="30" as="geometry" />
        </mxCell>
        <mxCell id="q7iPZD9RiJR8RyIHpfa4-39" value="" style="rounded=0;whiteSpace=wrap;html=1;fillColor=#647687;fontColor=#ffffff;strokeColor=#314354;" vertex="1" parent="1">
          <mxGeometry x="2750" y="850" width="300" height="30" as="geometry" />
        </mxCell>
        <mxCell id="q7iPZD9RiJR8RyIHpfa4-40" value="&lt;font face=&quot;Courier New&quot;&gt;Email&lt;/font&gt;" style="text;html=1;align=center;verticalAlign=middle;whiteSpace=wrap;rounded=0;" vertex="1" parent="1">
          <mxGeometry x="2867.5" y="900" width="60" height="30" as="geometry" />
        </mxCell>
        <mxCell id="q7iPZD9RiJR8RyIHpfa4-41" value="" style="rounded=0;whiteSpace=wrap;html=1;fillColor=#647687;fontColor=#ffffff;strokeColor=#314354;" vertex="1" parent="1">
          <mxGeometry x="2747.5" y="940" width="300" height="30" as="geometry" />
        </mxCell>
        <mxCell id="q7iPZD9RiJR8RyIHpfa4-42" value="&lt;font face=&quot;Courier New&quot;&gt;Endereço&lt;/font&gt;" style="text;html=1;align=center;verticalAlign=middle;whiteSpace=wrap;rounded=0;" vertex="1" parent="1">
          <mxGeometry x="2867.5" y="990" width="60" height="30" as="geometry" />
        </mxCell>
        <mxCell id="q7iPZD9RiJR8RyIHpfa4-43" value="" style="rounded=0;whiteSpace=wrap;html=1;fillColor=#647687;fontColor=#ffffff;strokeColor=#314354;" vertex="1" parent="1">
          <mxGeometry x="2750" y="1030" width="300" height="30" as="geometry" />
        </mxCell>
        <mxCell id="q7iPZD9RiJR8RyIHpfa4-44" value="&lt;font style=&quot;font-size: 16px;&quot; face=&quot;Courier New&quot;&gt;(43)1234-5678&lt;/font&gt;" style="text;html=1;align=center;verticalAlign=middle;whiteSpace=wrap;rounded=0;fontSize=16;" vertex="1" parent="1">
          <mxGeometry x="2820" y="850" width="155" height="30" as="geometry" />
        </mxCell>
        <mxCell id="q7iPZD9RiJR8RyIHpfa4-45" value="&lt;font style=&quot;font-size: 16px;&quot; face=&quot;Courier New&quot;&gt;@sewdreams.com.br&lt;/font&gt;" style="text;html=1;align=center;verticalAlign=middle;whiteSpace=wrap;rounded=0;" vertex="1" parent="1">
          <mxGeometry x="2870" y="940" width="60" height="30" as="geometry" />
        </mxCell>
        <mxCell id="q7iPZD9RiJR8RyIHpfa4-46" value="&lt;font face=&quot;Courier New&quot; style=&quot;font-size: 13px;&quot;&gt;Avenida Encantada,Rua dos Sonhos, Nª7&lt;/font&gt;" style="text;html=1;align=center;verticalAlign=middle;whiteSpace=wrap;rounded=0;fontSize=13;" vertex="1" parent="1">
          <mxGeometry x="2725" y="1030" width="350" height="30" as="geometry" />
        </mxCell>
        <mxCell id="q7iPZD9RiJR8RyIHpfa4-47" value="&lt;font face=&quot;Courier New&quot;&gt;&lt;b&gt;Voltar&lt;/b&gt;&lt;/font&gt;" style="labelPosition=center;verticalLabelPosition=middle;align=center;html=1;shape=mxgraph.basic.button;dx=10;whiteSpace=wrap;fillColor=#647687;fontColor=#ffffff;strokeColor=#314354;" vertex="1" parent="1">
          <mxGeometry x="2747.5" y="1201" width="100" height="40" as="geometry" />
        </mxCell>
        <mxCell id="q7iPZD9RiJR8RyIHpfa4-48" value="" style="ellipse;shape=cloud;whiteSpace=wrap;html=1;" vertex="1" parent="1">
          <mxGeometry x="2835" y="1080" width="120" height="80" as="geometry" />
        </mxCell>
        <mxCell id="q7iPZD9RiJR8RyIHpfa4-49" value="" style="shape=image;html=1;verticalLabelPosition=bottom;verticalAlign=top;imageAspect=0;image=https://cdn-icons-png.flaticon.com/128/4424/4424430.png;" vertex="1" parent="1">
          <mxGeometry x="2875" y="1100.5" width="45" height="40" as="geometry" />
        </mxCell>
        <mxCell id="q7iPZD9RiJR8RyIHpfa4-51" value="&lt;font face=&quot;Courier New&quot;&gt;&lt;span style=&quot;font-size: 17px;&quot;&gt;&lt;b&gt;SewDreams&lt;/b&gt;&lt;/span&gt;&lt;/font&gt;" style="text;html=1;align=center;verticalAlign=middle;whiteSpace=wrap;rounded=0;" vertex="1" parent="1">
          <mxGeometry x="2870" y="1160" width="60" height="30" as="geometry" />
        </mxCell>
        <mxCell id="q7iPZD9RiJR8RyIHpfa4-52" value="&lt;font face=&quot;Courier New&quot;&gt;Agradecemos pela prefrerência !!&lt;/font&gt;" style="text;html=1;align=center;verticalAlign=middle;whiteSpace=wrap;rounded=0;" vertex="1" parent="1">
          <mxGeometry x="2985" y="1190" width="60" height="64" as="geometry" />
        </mxCell>
        <mxCell id="q7iPZD9RiJR8RyIHpfa4-53" value="" style="verticalLabelPosition=bottom;verticalAlign=top;html=1;shape=mxgraph.basic.smiley;fillColor=#ffff88;strokeColor=#36393d;" vertex="1" parent="1">
          <mxGeometry x="3005" y="1254" width="20" height="20" as="geometry" />
        </mxCell>
        <mxCell id="q7iPZD9RiJR8RyIHpfa4-56" value="" style="rounded=0;whiteSpace=wrap;html=1;direction=south;fillColor=#bac8d3;strokeColor=#23445d;" vertex="1" parent="1">
          <mxGeometry x="1790" y="1360" width="720" height="600" as="geometry" />
        </mxCell>
        <mxCell id="q7iPZD9RiJR8RyIHpfa4-62" value="" style="rounded=0;whiteSpace=wrap;html=1;fillColor=#647687;strokeColor=#314354;fontColor=#ffffff;" vertex="1" parent="1">
          <mxGeometry x="1849.25" y="1500" width="641.5" height="40" as="geometry" />
        </mxCell>
        <mxCell id="q7iPZD9RiJR8RyIHpfa4-64" value="&lt;font face=&quot;Courier New&quot; style=&quot;font-size: 26px;&quot;&gt;Manga curta&amp;nbsp;&lt;/font&gt;" style="text;html=1;align=center;verticalAlign=middle;whiteSpace=wrap;rounded=0;fontColor=#FFFFFF;" vertex="1" parent="1">
          <mxGeometry x="2011.25" y="1505" width="300" height="30" as="geometry" />
        </mxCell>
        <mxCell id="q7iPZD9RiJR8RyIHpfa4-65" value="" style="rounded=0;whiteSpace=wrap;html=1;fillColor=#647687;fontColor=#ffffff;strokeColor=#314354;" vertex="1" parent="1">
          <mxGeometry x="1849.25" y="1590" width="640" height="40" as="geometry" />
        </mxCell>
        <mxCell id="q7iPZD9RiJR8RyIHpfa4-66" value="&lt;font face=&quot;Courier New&quot; style=&quot;font-size: 26px;&quot;&gt;Manga longa&lt;/font&gt;" style="text;html=1;align=center;verticalAlign=middle;whiteSpace=wrap;rounded=0;fontColor=#FFFFFF;" vertex="1" parent="1">
          <mxGeometry x="1987.5" y="1595" width="325" height="30" as="geometry" />
        </mxCell>
        <mxCell id="q7iPZD9RiJR8RyIHpfa4-67" value="" style="rounded=0;whiteSpace=wrap;html=1;fillColor=#647687;fontColor=#ffffff;strokeColor=#314354;" vertex="1" parent="1">
          <mxGeometry x="1849.25" y="1680" width="640.75" height="40" as="geometry" />
        </mxCell>
        <mxCell id="q7iPZD9RiJR8RyIHpfa4-68" value="&lt;font color=&quot;#ffffff&quot; style=&quot;font-size: 26px;&quot; face=&quot;Courier New&quot;&gt;Regata&lt;/font&gt;" style="text;html=1;align=center;verticalAlign=middle;whiteSpace=wrap;rounded=0;" vertex="1" parent="1">
          <mxGeometry x="2123.5" y="1685" width="60" height="30" as="geometry" />
        </mxCell>
        <mxCell id="q7iPZD9RiJR8RyIHpfa4-69" value="" style="rounded=0;whiteSpace=wrap;html=1;fillColor=#647687;fontColor=#ffffff;strokeColor=#314354;" vertex="1" parent="1">
          <mxGeometry x="1849.25" y="1770" width="640.75" height="40" as="geometry" />
        </mxCell>
        <mxCell id="q7iPZD9RiJR8RyIHpfa4-70" value="&lt;font color=&quot;#ffffff&quot; style=&quot;font-size: 26px;&quot; face=&quot;Courier New&quot;&gt;Moletons&lt;/font&gt;" style="text;html=1;align=center;verticalAlign=middle;whiteSpace=wrap;rounded=0;" vertex="1" parent="1">
          <mxGeometry x="2131.25" y="1775" width="60" height="30" as="geometry" />
        </mxCell>
        <mxCell id="q7iPZD9RiJR8RyIHpfa4-71" value="&lt;h1&gt;&lt;font face=&quot;Courier New&quot;&gt;Selecione um Modelo&lt;/font&gt;&lt;/h1&gt;" style="text;html=1;align=center;verticalAlign=middle;whiteSpace=wrap;rounded=0;" vertex="1" parent="1">
          <mxGeometry x="2013.5" y="1430" width="280" height="30" as="geometry" />
        </mxCell>
        <mxCell id="q7iPZD9RiJR8RyIHpfa4-72" value="&lt;font face=&quot;Courier New&quot;&gt;&lt;b&gt;Próximo&lt;/b&gt;&lt;/font&gt;" style="labelPosition=center;verticalLabelPosition=middle;align=center;html=1;shape=mxgraph.basic.button;dx=10;whiteSpace=wrap;fillColor=#647687;fontColor=#ffffff;strokeColor=#314354;" vertex="1" parent="1">
          <mxGeometry x="2390" y="1880" width="100" height="40" as="geometry" />
        </mxCell>
        <mxCell id="q7iPZD9RiJR8RyIHpfa4-73" value="&lt;font face=&quot;Courier New&quot;&gt;&lt;b&gt;Voltar&lt;/b&gt;&lt;/font&gt;" style="labelPosition=center;verticalLabelPosition=middle;align=center;html=1;shape=mxgraph.basic.button;dx=10;whiteSpace=wrap;fillColor=#647687;fontColor=#ffffff;strokeColor=#314354;" vertex="1" parent="1">
          <mxGeometry x="1823.5" y="1880" width="107" height="40" as="geometry" />
        </mxCell>
      </root>
    </mxGraphModel>
  </diagram>
</mxfile>
